<svg xmlns="http://www.w3.org/2000/svg" viewBox="0 0 920 420" fill="none">
  <defs>
    <linearGradient id="bg" x1="0" y1="0" x2="920" y2="420" gradientUnits="userSpaceOnUse">
      <stop stop-color="#0f172a"/>
      <stop offset="1" stop-color="#1e293b"/>
    </linearGradient>
    <linearGradient id="blue" x1="0" y1="0" x2="1" y2="1">
      <stop stop-color="#38bdf8"/>
      <stop offset="1" stop-color="#2563eb"/>
    </linearGradient>
    <linearGradient id="green" x1="0" y1="0" x2="1" y2="1">
      <stop stop-color="#4ade80"/>
      <stop offset="1" stop-color="#16a34a"/>
    </linearGradient>
    <linearGradient id="purple" x1="0" y1="0" x2="1" y2="1">
      <stop stop-color="#c084fc"/>
      <stop offset="1" stop-color="#7c3aed"/>
    </linearGradient>
    <linearGradient id="orange" x1="0" y1="0" x2="1" y2="1">
      <stop stop-color="#fb923c"/>
      <stop offset="1" stop-color="#ea580c"/>
    </linearGradient>
  </defs>
  <rect width="920" height="420" rx="20" fill="url(#bg)"/>
  <text x="460" y="42" text-anchor="middle" fill="#f8fafc" font-family="Segoe UI, Arial, sans-serif" font-size="24" font-weight="700">tg-chat-monitor  0@E8B5:BC@0</text>

  <rect x="60" y="90" width="180" height="90" rx="14" fill="url(#blue)" opacity="0.95"/>
  <text x="150" y="125" text-anchor="middle" fill="white" font-family="Segoe UI, Arial, sans-serif" font-size="16" font-weight="700">4<8=</text>
  <text x="150" y="150" text-anchor="middle" fill="#e0f2fe" font-family="Segoe UI, Arial, sans-serif" font-size="13">Telegram !</text>

  <rect x="370" y="70" width="180" height="110" rx="14" fill="url(#green)" opacity="0.95"/>
  <text x="460" y="110" text-anchor="middle" fill="white" font-family="Segoe UI, Arial, sans-serif" font-size="16" font-weight="700">aiogram 3.x</text>
  <text x="460" y="135" text-anchor="middle" fill="#dcfce7" font-family="Segoe UI, Arial, sans-serif" font-size="13">><0=4K 1>B0</text>
  <text x="460" y="155" text-anchor="middle" fill="#dcfce7" font-family="Segoe UI, Arial, sans-serif" font-size="12">/add_chat /add_word</text>

  <rect x="680" y="90" width="180" height="90" rx="14" fill="url(#purple)" opacity="0.95"/>
  <text x="770" y="125" text-anchor="middle" fill="white" font-family="Segoe UI, Arial, sans-serif" font-size="16" font-weight="700">Telethon</text>
  <text x="770" y="150" text-anchor="middle" fill="#ede9fe" font-family="Segoe UI, Arial, sans-serif" font-size="13">'B5=85 G0B>2</text>

  <rect x="250" y="250" width="180" height="90" rx="14" fill="url(#orange)" opacity="0.95"/>
  <text x="340" y="285" text-anchor="middle" fill="white" font-family="Segoe UI, Arial, sans-serif" font-size="16" font-weight="700">SQLite</text>
  <text x="340" y="310" text-anchor="middle" fill="#ffedd5" font-family="Segoe UI, Arial, sans-serif" font-size="13">SQLAlchemy</text>

  <rect x="490" y="250" width="180" height="90" rx="14" fill="#334155" stroke="#64748b" stroke-width="2"/>
  <text x="580" y="285" text-anchor="middle" fill="#f8fafc" font-family="Segoe UI, Arial, sans-serif" font-size="16" font-weight="700">Monitor Loop</text>
  <text x="580" y="310" text-anchor="middle" fill="#cbd5e1" font-family="Segoe UI, Arial, sans-serif" font-size="13">?@>A :064K5 N A5:</text>

  <path d="M240 135 H370" stroke="#94a3b8" stroke-width="2" marker-end="url(#arrow)"/>
  <path d="M550 135 H680" stroke="#94a3b8" stroke-width="2"/>
  <path d="M460 180 V230 H580 V250" stroke="#94a3b8" stroke-width="2"/>
  <path d="M340 250 V200 H460" stroke="#94a3b8" stroke-width="2"/>
  <path d="M670 250 H770 V180" stroke="#94a3b8" stroke-width="2"/>
  <path d="M150 180 V320 H250" stroke="#94a3b8" stroke-width="2" stroke-dasharray="6 4"/>
  <text x="175" y="360" fill="#94a3b8" font-family="Segoe UI, Arial, sans-serif" font-size="12">= C254><;5=85</text>
</svg>
